<svg width="81" height="72" viewBox="0 0 81 72" fill="none" xmlns="http://www.w3.org/2000/svg">
<g clip-path="url(#clip0)">
<path d="M67.2423 14.0107H14.0252V71.1274H67.2423V14.0107Z" fill="url(#paint0_linear)"/>
<path d="M13.805 14.0107C13.8693 14.0107 13.9335 14.0383 14.0252 14.0658C14.0252 33.068 14.0252 52.0701 14.0252 71.0998C9.9055 71.421 6.42803 70.3841 3.66625 67.7233C1.7119 65.8332 0.766835 63.6127 0.766835 61.0987C0.766835 52.1986 0.766835 43.3077 0.766835 34.4076C0.766835 31.0127 0.75766 27.6178 0.75766 24.2229C0.75766 20.1215 2.96892 17.1395 7.03361 15.1209C9.12559 14.0933 11.447 13.9373 13.805 14.0107Z" fill="url(#paint1_linear)"/>
<path d="M57.9477 14.0016C60.3241 14.0016 60.5627 14.0016 62.9299 14.0016C62.9299 33.068 62.9299 52.0701 62.9299 71.109C46.7721 71.109 34.5505 71.109 18.3377 71.109C18.3377 52.0793 18.3377 33.0771 18.3377 14.0199C20.7049 14.0199 21.2187 14.0199 23.6319 14.0199C23.6319 13.7813 23.6319 13.5978 23.6319 13.4235C23.6319 11.3774 23.641 9.32212 23.6227 7.27601C23.6043 5.84466 23.9897 4.59681 25.1091 3.62422C25.8982 2.94524 26.8065 2.59658 27.8342 2.59658C31.018 2.5874 34.1927 2.5874 37.3766 2.5874C42.7258 2.5874 48.0842 2.59658 53.4334 2.5874C54.8373 2.5874 56.0025 3.04617 56.9201 4.11051C57.6541 4.96382 57.9294 5.96394 57.9294 7.08333C57.9202 9.23954 57.9294 11.3958 57.9294 13.552C57.9202 13.6712 57.9294 13.8089 57.9477 14.0016ZM29.3756 14.0016C29.5958 14.0016 29.761 14.0016 29.9262 14.0016C32.4586 14.0016 35.0001 14.0016 37.5325 14.0016C42.267 14.0016 47.0107 14.0016 51.7452 14.0107C52.1214 14.0107 52.2039 13.8914 52.2039 13.5336C52.1856 11.9279 52.2039 10.3222 52.2039 8.71654C52.2039 8.58809 52.1856 8.45963 52.1672 8.322C44.5517 8.322 36.982 8.322 29.3756 8.322C29.3756 10.2121 29.3756 12.0656 29.3756 14.0016Z" fill="white"/>
<mask id="mask0" mask-type="alpha" maskUnits="userSpaceOnUse" x="18" y="2" width="45" height="70">
<path d="M57.9477 14.0016C60.3241 14.0016 60.5627 14.0016 62.9299 14.0016C62.9299 33.068 62.9299 52.0701 62.9299 71.109C46.7721 71.109 34.5505 71.109 18.3376 71.109C18.3376 52.0793 18.3376 33.0771 18.3376 14.0199C20.7049 14.0199 21.2187 14.0199 23.6318 14.0199C23.6318 13.7813 23.6318 13.5978 23.6318 13.4235C23.6318 11.3774 23.641 9.32212 23.6227 7.27601C23.6043 5.84466 23.9897 4.59681 25.1091 3.62422C25.8981 2.94524 26.8065 2.59658 27.8341 2.59658C31.018 2.5874 34.1927 2.5874 37.3765 2.5874C42.7258 2.5874 48.0842 2.59658 53.4334 2.5874C54.8372 2.5874 56.0025 3.04617 56.9201 4.11051C57.6541 4.96382 57.9293 5.96394 57.9293 7.08333C57.9202 9.23954 57.9293 11.3958 57.9293 13.552C57.9202 13.6712 57.9293 13.8089 57.9477 14.0016ZM29.3756 14.0016C29.5958 14.0016 29.761 14.0016 29.9261 14.0016C32.4585 14.0016 35.0001 14.0016 37.5325 14.0016C42.267 14.0016 47.0107 14.0016 51.7451 14.0107C52.1213 14.0107 52.2039 13.8914 52.2039 13.5336C52.1856 11.9279 52.2039 10.3222 52.2039 8.71654C52.2039 8.58809 52.1856 8.45963 52.1672 8.322C44.5517 8.322 36.982 8.322 29.3756 8.322C29.3756 10.2121 29.3756 12.0656 29.3756 14.0016Z" fill="#F7F9FC"/>
</mask>
<g mask="url(#mask0)">
<path d="M58.8628 0H21.7668V14.02H58.8628V0Z" fill="url(#paint2_linear)"/>
</g>
<path d="M80.7669 24.0762C80.7669 20.2959 78.7024 17.4791 75.0323 15.433C72.7751 14.176 70.2152 13.9374 67.591 13.9925C67.1873 14.0016 67.2424 14.2127 67.2424 14.4329C67.2424 21.0391 67.2424 27.6362 67.2424 34.2425C67.2424 45.8493 67.2424 57.447 67.2332 69.0538C67.2332 69.7236 67.2332 70.3934 67.2332 71.1183C68.8848 71.1733 70.4537 71.1825 71.9952 70.8155C77.2068 69.586 80.7577 65.7048 80.7577 61.1263C80.776 48.7854 80.7669 36.4262 80.7669 24.0762Z" fill="url(#paint3_linear)"/>
<path d="M44.9829 46.7852C44.9829 47.9688 44.9829 49.0882 44.9829 50.2168C44.9829 51.4921 44.9829 52.7675 44.9829 54.0337C44.9829 54.7953 44.5976 55.199 43.8452 55.199C41.7715 55.2082 39.6979 55.2082 37.6243 55.199C36.9361 55.199 36.5508 54.7677 36.5508 54.0429C36.5508 51.7674 36.5508 49.4919 36.5508 47.2164C36.5508 47.088 36.5508 46.9503 36.5508 46.7852C36.3764 46.7852 36.248 46.7852 36.1103 46.7852C33.8716 46.7852 31.6236 46.7852 29.3848 46.7852C28.4948 46.7852 28.1278 46.4273 28.1278 45.5373C28.1278 43.5646 28.1278 41.5919 28.1278 39.6192C28.1278 38.72 28.4856 38.3622 29.3756 38.3622C31.6052 38.3622 33.8349 38.3622 36.0645 38.3622C36.2113 38.3622 36.3489 38.3622 36.5416 38.3622C36.5416 38.2154 36.5416 38.0961 36.5416 37.9768C36.5416 35.7013 36.5416 33.4258 36.5416 31.1504C36.5416 30.3062 36.9178 29.9392 37.7619 29.9392C39.7346 29.9392 41.7073 29.9392 43.68 29.9392C44.6067 29.9392 44.9646 30.2879 44.9646 31.2329C44.9737 33.4901 44.9646 35.738 44.9646 37.9952C44.9646 38.1053 44.9646 38.2154 44.9646 38.3714C45.1114 38.3714 45.2398 38.3714 45.3591 38.3714C47.6346 38.3714 49.9101 38.3714 52.1856 38.3805C53.0205 38.3805 53.3784 38.7476 53.3784 39.5825C53.3784 41.5644 53.3784 43.5463 53.3784 45.5282C53.3784 46.4365 53.0297 46.7852 52.1397 46.7852C49.8734 46.7852 47.6071 46.7852 45.3499 46.7944C45.2582 46.7852 45.1481 46.7852 44.9829 46.7852Z" fill="url(#paint4_linear)"/>
</g>
<defs>
<linearGradient id="paint0_linear" x1="14.0266" y1="42.5656" x2="67.2398" y2="42.5656" gradientUnits="userSpaceOnUse">
<stop stop-color="#B0F4FF"/>
<stop offset="1" stop-color="#69DCFC"/>
</linearGradient>
<linearGradient id="paint1_linear" x1="0.766835" y1="42.5746" x2="14.0266" y2="42.5746" gradientUnits="userSpaceOnUse">
<stop stop-color="#6CBCFC"/>
<stop offset="1" stop-color="#458DFC"/>
</linearGradient>
<linearGradient id="paint2_linear" x1="21.763" y1="7.00849" x2="58.8612" y2="7.00849" gradientUnits="userSpaceOnUse">
<stop stop-color="#6CBCFC"/>
<stop offset="1" stop-color="#458DFC"/>
</linearGradient>
<linearGradient id="paint3_linear" x1="67.2354" y1="42.569" x2="80.7676" y2="42.569" gradientUnits="userSpaceOnUse">
<stop stop-color="#6CBCFC"/>
<stop offset="1" stop-color="#458DFC"/>
</linearGradient>
<linearGradient id="paint4_linear" x1="28.1334" y1="42.5783" x2="53.3967" y2="42.5783" gradientUnits="userSpaceOnUse">
<stop stop-color="#6CBCFC"/>
<stop offset="1" stop-color="#458DFC"/>
</linearGradient>
<clipPath id="clip0">
<rect width="80" height="71.1549" fill="white" transform="translate(0.766846)"/>
</clipPath>
</defs>
</svg>
