<svg width="68" height="95" viewBox="0 0 68 95" fill="none" xmlns="http://www.w3.org/2000/svg">
<g clip-path="url(#clip0)">
<path d="M67.4774 90.4482C67.4774 92.9272 65.4709 94.942 62.9919 94.942L4.98698 95.0083C3.01369 95.0083 1.33888 93.7398 0.733624 91.9737C0.576092 91.5177 0.49318 91.0368 0.49318 90.5311L0.401978 6.88167C0.401978 4.40261 2.40844 2.38786 4.88749 2.38786L58.1498 2.32982L62.8924 2.32153C65.3714 2.32153 67.3862 4.32799 67.3862 6.80704L67.4774 90.4482Z" fill="url(#paint0_linear)"/>
<path d="M61.4663 89.9673L6.50427 90.0254C5.16939 90.0254 4.09154 88.9475 4.09154 87.6126L4.00863 9.76703C4.00863 8.43215 5.08648 7.3543 6.42135 7.3543L61.3751 7.29626C62.71 7.29626 63.7878 8.37411 63.7878 9.70899L63.8707 87.5546C63.879 88.8812 62.8012 89.9673 61.4663 89.9673Z" fill="white"/>
<path d="M53.7472 13.7136L13.6595 13.7633C12.3329 13.7633 11.2468 12.6855 11.2468 11.3589L11.2385 4.67623C11.2385 3.34964 12.3163 2.2635 13.6429 2.2635L53.7389 2.22205C55.0655 2.22205 56.1517 3.2999 56.1517 4.62648L56.16 11.3091C56.1517 12.6357 55.0738 13.7136 53.7472 13.7136ZM13.6429 3.49059C12.9962 3.49059 12.4656 4.02123 12.4656 4.66793L12.4739 11.3506C12.4739 11.9973 13.0045 12.5279 13.6512 12.5279L53.7472 12.4865C54.3939 12.4865 54.9246 11.9559 54.9246 11.3091L54.9163 4.62648C54.9163 3.97977 54.3856 3.44914 53.7389 3.44914L13.6429 3.49059Z" fill="url(#paint1_linear)"/>
<path d="M52.6114 5.11564L15.1768 5.1571C14.7622 5.1571 14.4306 4.82545 14.4306 4.41089V0.787659C14.4306 0.373102 14.7622 0.0414557 15.1768 0.0414557L52.6031 0C53.0176 0 53.3493 0.331646 53.3493 0.746203V4.36944C53.3576 4.78399 53.0259 5.11564 52.6114 5.11564Z" fill="url(#paint2_linear)"/>
<path d="M15.21 5.15714L52.5782 5.11568C53.0093 5.11568 53.3576 4.76746 53.3576 4.33632V2.56201L14.4223 2.60347V4.37777C14.4223 4.80891 14.7788 5.15714 15.21 5.15714Z" fill="#58D6F4"/>
<path d="M28.3432 81.2118L25.1096 61.6447L22.4896 70.1597L14.9944 70.168C14.5384 70.168 14.1736 69.8031 14.1736 69.3471C14.1736 68.8911 14.5384 68.5263 14.9944 68.5263L21.2874 68.518L25.6071 54.4977L28.8406 74.1145L33.0359 60.6414L35.2663 67.0256L40.2907 54.8459L45.1742 74.1643L47.0148 68.0205L52.4041 68.0123C52.8601 68.0123 53.2249 68.3771 53.2249 68.8331C53.2249 69.2891 52.8601 69.6539 52.4041 69.6539L48.2336 69.6622L45.0415 80.3163L39.9176 60.0528L35.1336 71.6355L33.1189 65.8731L28.3432 81.2118Z" fill="#58D6F4"/>
<path d="M22.7881 43.4871L12.25 43.4954C10.5503 43.4954 9.15741 42.1107 9.15741 40.411L9.14082 25.6777C9.14082 23.978 10.5254 22.5851 12.2251 22.5851L22.7632 22.5768C24.4629 22.5768 25.8558 23.9614 25.8558 25.6611L25.8724 40.3945C25.8724 42.0942 24.4877 43.4788 22.7881 43.4871ZM12.2168 23.4805C11.0063 23.4805 10.028 24.4672 10.028 25.6777L10.0446 40.411C10.0446 41.6216 11.0312 42.5999 12.2417 42.5999L22.7798 42.5916C23.9903 42.5916 24.9686 41.605 24.9686 40.3945L24.9521 25.6611C24.9521 24.4506 23.9654 23.4722 22.7549 23.4722L12.2168 23.4805Z" fill="url(#paint3_linear)"/>
<path d="M17.5066 40.6598C22.4896 40.6515 24.04 37.7745 24.04 37.7745C23.8162 37.4926 23.5343 37.2439 23.1529 36.9951C21.8429 36.1411 20.7899 35.7763 20.3505 35.4115C19.9028 35.055 19.654 34.5327 19.654 34.5327L19.3804 34.6985C19.3804 34.6985 19.2146 34.1264 19.3058 33.2558C19.3058 33.2558 19.6955 33.1563 19.9857 31.838C20.45 31.9292 20.9972 30.7519 20.7402 30.3207C20.5743 30.0388 20.3754 30.0637 20.2344 30.1301C20.3754 29.5414 21.0138 26.283 17.4983 26.283C13.9829 26.283 14.6213 29.5414 14.7705 30.1301C14.6296 30.0637 14.4306 30.0388 14.2648 30.3207C14.0077 30.7519 14.5633 31.9292 15.0276 31.838C15.3177 33.1563 15.7157 33.2475 15.7157 33.2475C15.8152 34.1098 15.6411 34.6902 15.6411 34.6902L15.3675 34.5244C15.3675 34.5244 15.1188 35.0384 14.671 35.4032C14.2233 35.768 13.1786 36.1411 11.8686 36.9951C11.4872 37.2439 11.197 37.4926 10.9815 37.7745C10.9732 37.7911 12.5319 40.6681 17.5066 40.6598Z" fill="url(#paint4_linear)"/>
<path d="M50.323 27.2779L30.0346 27.3028C29.6532 27.3028 29.3464 26.996 29.3464 26.6146V26.4986C29.3464 26.1172 29.6532 25.8104 30.0346 25.8104L50.323 25.7855C50.7044 25.7855 51.0112 26.0923 51.0112 26.4737V26.5898C51.0112 26.9712 50.6961 27.2779 50.323 27.2779Z" fill="url(#paint5_linear)"/>
<path d="M42.861 31.1416L30.0346 31.1582C29.6532 31.1582 29.3464 30.8514 29.3464 30.47V30.3539C29.3464 29.9725 29.6532 29.6658 30.0346 29.6658L42.861 29.6492C43.2424 29.6492 43.5491 29.9559 43.5491 30.3373V30.4534C43.5491 30.8348 43.2424 31.1416 42.861 31.1416Z" fill="url(#paint6_linear)"/>
<path opacity="0.6" d="M57.3207 35.7348L30.0428 35.768C29.6614 35.768 29.3547 35.4612 29.3547 35.0798V34.9638C29.3547 34.5824 29.6614 34.2756 30.0428 34.2756L57.3207 34.2424C57.7021 34.2424 58.0089 34.5492 58.0089 34.9306V35.0467C58.0006 35.4281 57.6938 35.7348 57.3207 35.7348Z" fill="url(#paint7_linear)"/>
<path opacity="0.6" d="M56.7321 48.6441L11.2302 48.6939C10.8405 48.6939 10.5172 48.3788 10.5172 47.9808V47.9145C10.5172 47.5248 10.8322 47.2015 11.2302 47.2015L56.7321 47.1517C57.1217 47.1517 57.4451 47.4668 57.4451 47.8648V47.9311C57.4451 48.3291 57.1217 48.6441 56.7321 48.6441Z" fill="url(#paint8_linear)"/>
<path opacity="0.6" d="M57.3207 40.2452L30.0428 40.2784C29.6614 40.2784 29.3547 39.9716 29.3547 39.5902V39.4741C29.3547 39.0927 29.6614 38.786 30.0428 38.786L57.3207 38.7528C57.7021 38.7528 58.0089 39.0596 58.0089 39.441V39.5571C58.0089 39.9384 57.7021 40.2452 57.3207 40.2452Z" fill="url(#paint9_linear)"/>
</g>
<defs>
<linearGradient id="paint0_linear" x1="-8.88671" y1="34.748" x2="76.766" y2="62.5782" gradientUnits="userSpaceOnUse">
<stop stop-color="#6CBCFC"/>
<stop offset="0.1713" stop-color="#5EABFC"/>
<stop offset="0.4084" stop-color="#509AFC"/>
<stop offset="0.6698" stop-color="#4890FC"/>
<stop offset="1" stop-color="#458DFC"/>
</linearGradient>
<linearGradient id="paint1_linear" x1="-4.82302" y1="-21.375" x2="56.1534" y2="7.98973" gradientUnits="userSpaceOnUse">
<stop stop-color="#CFE9FF"/>
<stop offset="1" stop-color="#A1D6FB"/>
</linearGradient>
<linearGradient id="paint2_linear" x1="14.4211" y1="2.57952" x2="53.3569" y2="2.57952" gradientUnits="userSpaceOnUse">
<stop stop-color="#B0F4FF"/>
<stop offset="1" stop-color="#69DCFC"/>
</linearGradient>
<linearGradient id="paint3_linear" x1="14.5369" y1="29.2075" x2="24.3175" y2="41.8334" gradientUnits="userSpaceOnUse">
<stop stop-color="#6CBCFC"/>
<stop offset="1" stop-color="#458DFC"/>
</linearGradient>
<linearGradient id="paint4_linear" x1="13.4761" y1="30.0293" x2="23.2568" y2="42.6553" gradientUnits="userSpaceOnUse">
<stop stop-color="#B0F4FF"/>
<stop offset="0.0994384" stop-color="#A1EFFE"/>
<stop offset="0.2994" stop-color="#88E7FD"/>
<stop offset="0.5095" stop-color="#77E1FD"/>
<stop offset="0.7344" stop-color="#6CDDFC"/>
<stop offset="1" stop-color="#69DCFC"/>
</linearGradient>
<linearGradient id="paint5_linear" x1="29.3475" y1="26.551" x2="51.0068" y2="26.564" gradientUnits="userSpaceOnUse">
<stop stop-color="#6CBCFC"/>
<stop offset="1" stop-color="#458DFC"/>
</linearGradient>
<linearGradient id="paint6_linear" x1="29.3515" y1="30.4037" x2="43.5483" y2="30.4037" gradientUnits="userSpaceOnUse">
<stop stop-color="#6CBCFC"/>
<stop offset="1" stop-color="#458DFC"/>
</linearGradient>
<linearGradient id="paint7_linear" x1="29.3562" y1="35.0098" x2="58.0043" y2="35.0098" gradientUnits="userSpaceOnUse">
<stop stop-color="#6CBCFC"/>
<stop offset="1" stop-color="#458DFC"/>
</linearGradient>
<linearGradient id="paint8_linear" x1="10.5168" y1="47.9272" x2="57.4428" y2="47.9272" gradientUnits="userSpaceOnUse">
<stop stop-color="#6CBCFC"/>
<stop offset="1" stop-color="#458DFC"/>
</linearGradient>
<linearGradient id="paint9_linear" x1="29.3608" y1="39.5191" x2="58.0089" y2="39.5191" gradientUnits="userSpaceOnUse">
<stop stop-color="#6CBCFC"/>
<stop offset="1" stop-color="#458DFC"/>
</linearGradient>
<clipPath id="clip0">
<rect width="67.0754" height="95" fill="white" transform="translate(0.401978)"/>
</clipPath>
</defs>
</svg>
