<svg width="132" height="115" viewBox="0 0 132 115" fill="none" xmlns="http://www.w3.org/2000/svg">
<g opacity="0.3">
<mask id="mask0" mask-type="alpha" maskUnits="userSpaceOnUse" x="0" y="0" width="11" height="11">
<path d="M5.28575 10.425C8.17331 10.425 10.5141 8.09121 10.5141 5.21245C10.5141 2.33368 8.17331 0 5.28575 0C2.3982 0 0.057373 2.33368 0.057373 5.21245C0.057373 8.09121 2.3982 10.425 5.28575 10.425Z" fill="url(#paint0_linear)"/>
</mask>
<g mask="url(#mask0)">
<path d="M5.28575 10.425C8.17331 10.425 10.5141 8.09121 10.5141 5.21245C10.5141 2.33368 8.17331 0 5.28575 0C2.3982 0 0.057373 2.33368 0.057373 5.21245C0.057373 8.09121 2.3982 10.425 5.28575 10.425Z" fill="url(#paint1_linear)"/>
</g>
<mask id="mask1" mask-type="alpha" maskUnits="userSpaceOnUse" x="30" y="0" width="11" height="11">
<path d="M35.5668 10.425C38.4544 10.425 40.7952 8.09121 40.7952 5.21245C40.7952 2.33368 38.4544 0 35.5668 0C32.6793 0 30.3384 2.33368 30.3384 5.21245C30.3384 8.09121 32.6793 10.425 35.5668 10.425Z" fill="url(#paint2_linear)"/>
</mask>
<g mask="url(#mask1)">
<path d="M35.5668 10.425C38.4544 10.425 40.7952 8.09121 40.7952 5.21245C40.7952 2.33368 38.4544 0 35.5668 0C32.6793 0 30.3384 2.33368 30.3384 5.21245C30.3384 8.09121 32.6793 10.425 35.5668 10.425Z" fill="url(#paint3_linear)"/>
</g>
<mask id="mask2" mask-type="alpha" maskUnits="userSpaceOnUse" x="60" y="0" width="12" height="11">
<path d="M65.8479 10.425C68.7354 10.425 71.0763 8.09121 71.0763 5.21245C71.0763 2.33368 68.7354 0 65.8479 0C62.9603 0 60.6195 2.33368 60.6195 5.21245C60.6195 8.09121 62.9603 10.425 65.8479 10.425Z" fill="url(#paint4_linear)"/>
</mask>
<g mask="url(#mask2)">
<path d="M65.8479 10.425C68.7354 10.425 71.0763 8.09121 71.0763 5.21245C71.0763 2.33368 68.7354 0 65.8479 0C62.9603 0 60.6195 2.33368 60.6195 5.21245C60.6195 8.09121 62.9603 10.425 65.8479 10.425Z" fill="url(#paint5_linear)"/>
</g>
<mask id="mask3" mask-type="alpha" maskUnits="userSpaceOnUse" x="90" y="0" width="12" height="11">
<path d="M96.129 10.425C99.0165 10.425 101.357 8.09121 101.357 5.21245C101.357 2.33368 99.0165 0 96.129 0C93.2414 0 90.9006 2.33368 90.9006 5.21245C90.9006 8.09121 93.2414 10.425 96.129 10.425Z" fill="url(#paint6_linear)"/>
</mask>
<g mask="url(#mask3)">
<path d="M96.129 10.425C99.0165 10.425 101.357 8.09121 101.357 5.21245C101.357 2.33368 99.0165 0 96.129 0C93.2414 0 90.9006 2.33368 90.9006 5.21245C90.9006 8.09121 93.2414 10.425 96.129 10.425Z" fill="url(#paint7_linear)"/>
</g>
<mask id="mask4" mask-type="alpha" maskUnits="userSpaceOnUse" x="121" y="0" width="11" height="11">
<path d="M126.41 10.425C129.298 10.425 131.638 8.09121 131.638 5.21245C131.638 2.33368 129.298 0 126.41 0C123.522 0 121.182 2.33368 121.182 5.21245C121.182 8.09121 123.522 10.425 126.41 10.425Z" fill="url(#paint8_linear)"/>
</mask>
<g mask="url(#mask4)">
<path d="M126.41 10.425C129.298 10.425 131.638 8.09121 131.638 5.21245C131.638 2.33368 129.298 0 126.41 0C123.522 0 121.182 2.33368 121.182 5.21245C121.182 8.09121 123.522 10.425 126.41 10.425Z" fill="url(#paint9_linear)"/>
</g>
<mask id="mask5" mask-type="alpha" maskUnits="userSpaceOnUse" x="0" y="26" width="11" height="11">
<path d="M5.28575 36.5958C8.17331 36.5958 10.5141 34.2621 10.5141 31.3834C10.5141 28.5046 8.17331 26.171 5.28575 26.171C2.3982 26.171 0.057373 28.5046 0.057373 31.3834C0.057373 34.2621 2.3982 36.5958 5.28575 36.5958Z" fill="url(#paint10_linear)"/>
</mask>
<g mask="url(#mask5)">
<path d="M5.28575 36.5958C8.17331 36.5958 10.5141 34.2621 10.5141 31.3834C10.5141 28.5046 8.17331 26.171 5.28575 26.171C2.3982 26.171 0.057373 28.5046 0.057373 31.3834C0.057373 34.2621 2.3982 36.5958 5.28575 36.5958Z" fill="url(#paint11_linear)"/>
</g>
<mask id="mask6" mask-type="alpha" maskUnits="userSpaceOnUse" x="30" y="26" width="11" height="11">
<path d="M35.5668 36.5958C38.4544 36.5958 40.7952 34.2621 40.7952 31.3834C40.7952 28.5046 38.4544 26.171 35.5668 26.171C32.6793 26.171 30.3384 28.5046 30.3384 31.3834C30.3384 34.2621 32.6793 36.5958 35.5668 36.5958Z" fill="url(#paint12_linear)"/>
</mask>
<g mask="url(#mask6)">
<path d="M35.5668 36.5958C38.4544 36.5958 40.7952 34.2621 40.7952 31.3834C40.7952 28.5046 38.4544 26.171 35.5668 26.171C32.6793 26.171 30.3384 28.5046 30.3384 31.3834C30.3384 34.2621 32.6793 36.5958 35.5668 36.5958Z" fill="url(#paint13_linear)"/>
</g>
<mask id="mask7" mask-type="alpha" maskUnits="userSpaceOnUse" x="60" y="26" width="12" height="11">
<path d="M65.8479 36.5958C68.7354 36.5958 71.0763 34.2621 71.0763 31.3834C71.0763 28.5046 68.7354 26.171 65.8479 26.171C62.9603 26.171 60.6195 28.5046 60.6195 31.3834C60.6195 34.2621 62.9603 36.5958 65.8479 36.5958Z" fill="url(#paint14_linear)"/>
</mask>
<g mask="url(#mask7)">
<path d="M65.8479 36.5958C68.7354 36.5958 71.0763 34.2621 71.0763 31.3834C71.0763 28.5046 68.7354 26.171 65.8479 26.171C62.9603 26.171 60.6195 28.5046 60.6195 31.3834C60.6195 34.2621 62.9603 36.5958 65.8479 36.5958Z" fill="url(#paint15_linear)"/>
</g>
<mask id="mask8" mask-type="alpha" maskUnits="userSpaceOnUse" x="90" y="26" width="12" height="11">
<path d="M96.129 36.5958C99.0165 36.5958 101.357 34.2621 101.357 31.3834C101.357 28.5046 99.0165 26.171 96.129 26.171C93.2414 26.171 90.9006 28.5046 90.9006 31.3834C90.9006 34.2621 93.2414 36.5958 96.129 36.5958Z" fill="url(#paint16_linear)"/>
</mask>
<g mask="url(#mask8)">
<path d="M96.129 36.5958C99.0165 36.5958 101.357 34.2621 101.357 31.3834C101.357 28.5046 99.0165 26.171 96.129 26.171C93.2414 26.171 90.9006 28.5046 90.9006 31.3834C90.9006 34.2621 93.2414 36.5958 96.129 36.5958Z" fill="url(#paint17_linear)"/>
</g>
<mask id="mask9" mask-type="alpha" maskUnits="userSpaceOnUse" x="121" y="26" width="11" height="11">
<path d="M126.41 36.5958C129.298 36.5958 131.638 34.2621 131.638 31.3834C131.638 28.5046 129.298 26.171 126.41 26.171C123.522 26.171 121.182 28.5046 121.182 31.3834C121.182 34.2621 123.522 36.5958 126.41 36.5958Z" fill="url(#paint18_linear)"/>
</mask>
<g mask="url(#mask9)">
<path d="M126.41 36.5958C129.298 36.5958 131.638 34.2621 131.638 31.3834C131.638 28.5046 129.298 26.171 126.41 26.171C123.522 26.171 121.182 28.5046 121.182 31.3834C121.182 34.2621 123.522 36.5958 126.41 36.5958Z" fill="url(#paint19_linear)"/>
</g>
<mask id="mask10" mask-type="alpha" maskUnits="userSpaceOnUse" x="0" y="52" width="11" height="11">
<path d="M5.28575 62.7125C8.17331 62.7125 10.5141 60.3788 10.5141 57.5C10.5141 54.6212 8.17331 52.2875 5.28575 52.2875C2.3982 52.2875 0.057373 54.6212 0.057373 57.5C0.057373 60.3788 2.3982 62.7125 5.28575 62.7125Z" fill="url(#paint20_linear)"/>
</mask>
<g mask="url(#mask10)">
<path d="M5.28575 62.7125C8.17331 62.7125 10.5141 60.3788 10.5141 57.5C10.5141 54.6212 8.17331 52.2875 5.28575 52.2875C2.3982 52.2875 0.057373 54.6212 0.057373 57.5C0.057373 60.3788 2.3982 62.7125 5.28575 62.7125Z" fill="url(#paint21_linear)"/>
</g>
<mask id="mask11" mask-type="alpha" maskUnits="userSpaceOnUse" x="30" y="52" width="11" height="11">
<path d="M35.5668 62.7125C38.4544 62.7125 40.7952 60.3788 40.7952 57.5C40.7952 54.6212 38.4544 52.2875 35.5668 52.2875C32.6793 52.2875 30.3384 54.6212 30.3384 57.5C30.3384 60.3788 32.6793 62.7125 35.5668 62.7125Z" fill="url(#paint22_linear)"/>
</mask>
<g mask="url(#mask11)">
<path d="M35.5668 62.7125C38.4544 62.7125 40.7952 60.3788 40.7952 57.5C40.7952 54.6212 38.4544 52.2875 35.5668 52.2875C32.6793 52.2875 30.3384 54.6212 30.3384 57.5C30.3384 60.3788 32.6793 62.7125 35.5668 62.7125Z" fill="url(#paint23_linear)"/>
</g>
<mask id="mask12" mask-type="alpha" maskUnits="userSpaceOnUse" x="60" y="52" width="12" height="11">
<path d="M65.8479 62.7125C68.7354 62.7125 71.0763 60.3788 71.0763 57.5C71.0763 54.6212 68.7354 52.2875 65.8479 52.2875C62.9603 52.2875 60.6195 54.6212 60.6195 57.5C60.6195 60.3788 62.9603 62.7125 65.8479 62.7125Z" fill="url(#paint24_linear)"/>
</mask>
<g mask="url(#mask12)">
<path d="M65.8479 62.7125C68.7354 62.7125 71.0763 60.3788 71.0763 57.5C71.0763 54.6212 68.7354 52.2875 65.8479 52.2875C62.9603 52.2875 60.6195 54.6212 60.6195 57.5C60.6195 60.3788 62.9603 62.7125 65.8479 62.7125Z" fill="url(#paint25_linear)"/>
</g>
<mask id="mask13" mask-type="alpha" maskUnits="userSpaceOnUse" x="90" y="52" width="12" height="11">
<path d="M96.129 62.7125C99.0165 62.7125 101.357 60.3788 101.357 57.5C101.357 54.6212 99.0165 52.2875 96.129 52.2875C93.2414 52.2875 90.9006 54.6212 90.9006 57.5C90.9006 60.3788 93.2414 62.7125 96.129 62.7125Z" fill="url(#paint26_linear)"/>
</mask>
<g mask="url(#mask13)">
<path d="M96.129 62.7125C99.0165 62.7125 101.357 60.3788 101.357 57.5C101.357 54.6212 99.0165 52.2875 96.129 52.2875C93.2414 52.2875 90.9006 54.6212 90.9006 57.5C90.9006 60.3788 93.2414 62.7125 96.129 62.7125Z" fill="url(#paint27_linear)"/>
</g>
<mask id="mask14" mask-type="alpha" maskUnits="userSpaceOnUse" x="121" y="52" width="11" height="11">
<path d="M126.41 62.7125C129.298 62.7125 131.638 60.3788 131.638 57.5C131.638 54.6212 129.298 52.2875 126.41 52.2875C123.522 52.2875 121.182 54.6212 121.182 57.5C121.182 60.3788 123.522 62.7125 126.41 62.7125Z" fill="url(#paint28_linear)"/>
</mask>
<g mask="url(#mask14)">
<path d="M126.41 62.7125C129.298 62.7125 131.638 60.3788 131.638 57.5C131.638 54.6212 129.298 52.2875 126.41 52.2875C123.522 52.2875 121.182 54.6212 121.182 57.5C121.182 60.3788 123.522 62.7125 126.41 62.7125Z" fill="url(#paint29_linear)"/>
</g>
<mask id="mask15" mask-type="alpha" maskUnits="userSpaceOnUse" x="0" y="78" width="11" height="11">
<path d="M5.28575 88.8834C8.17331 88.8834 10.5141 86.5496 10.5141 83.6709C10.5141 80.7921 8.17331 78.4584 5.28575 78.4584C2.3982 78.4584 0.057373 80.7921 0.057373 83.6709C0.057373 86.5496 2.3982 88.8834 5.28575 88.8834Z" fill="url(#paint30_linear)"/>
</mask>
<g mask="url(#mask15)">
<path d="M5.28575 88.8834C8.17331 88.8834 10.5141 86.5496 10.5141 83.6709C10.5141 80.7921 8.17331 78.4584 5.28575 78.4584C2.3982 78.4584 0.057373 80.7921 0.057373 83.6709C0.057373 86.5496 2.3982 88.8834 5.28575 88.8834Z" fill="url(#paint31_linear)"/>
</g>
<mask id="mask16" mask-type="alpha" maskUnits="userSpaceOnUse" x="30" y="78" width="11" height="11">
<path d="M35.5668 88.8834C38.4544 88.8834 40.7952 86.5496 40.7952 83.6709C40.7952 80.7921 38.4544 78.4584 35.5668 78.4584C32.6793 78.4584 30.3384 80.7921 30.3384 83.6709C30.3384 86.5496 32.6793 88.8834 35.5668 88.8834Z" fill="url(#paint32_linear)"/>
</mask>
<g mask="url(#mask16)">
<path d="M35.5668 88.8834C38.4544 88.8834 40.7952 86.5496 40.7952 83.6709C40.7952 80.7921 38.4544 78.4584 35.5668 78.4584C32.6793 78.4584 30.3384 80.7921 30.3384 83.6709C30.3384 86.5496 32.6793 88.8834 35.5668 88.8834Z" fill="url(#paint33_linear)"/>
</g>
<mask id="mask17" mask-type="alpha" maskUnits="userSpaceOnUse" x="60" y="78" width="12" height="11">
<path d="M65.8479 88.8834C68.7354 88.8834 71.0763 86.5496 71.0763 83.6709C71.0763 80.7921 68.7354 78.4584 65.8479 78.4584C62.9603 78.4584 60.6195 80.7921 60.6195 83.6709C60.6195 86.5496 62.9603 88.8834 65.8479 88.8834Z" fill="url(#paint34_linear)"/>
</mask>
<g mask="url(#mask17)">
<path d="M65.8479 88.8834C68.7354 88.8834 71.0763 86.5496 71.0763 83.6709C71.0763 80.7921 68.7354 78.4584 65.8479 78.4584C62.9603 78.4584 60.6195 80.7921 60.6195 83.6709C60.6195 86.5496 62.9603 88.8834 65.8479 88.8834Z" fill="url(#paint35_linear)"/>
</g>
<mask id="mask18" mask-type="alpha" maskUnits="userSpaceOnUse" x="90" y="78" width="12" height="11">
<path d="M96.129 88.8834C99.0165 88.8834 101.357 86.5496 101.357 83.6709C101.357 80.7921 99.0165 78.4584 96.129 78.4584C93.2414 78.4584 90.9006 80.7921 90.9006 83.6709C90.9006 86.5496 93.2414 88.8834 96.129 88.8834Z" fill="url(#paint36_linear)"/>
</mask>
<g mask="url(#mask18)">
<path d="M96.129 88.8834C99.0165 88.8834 101.357 86.5496 101.357 83.6709C101.357 80.7921 99.0165 78.4584 96.129 78.4584C93.2414 78.4584 90.9006 80.7921 90.9006 83.6709C90.9006 86.5496 93.2414 88.8834 96.129 88.8834Z" fill="url(#paint37_linear)"/>
</g>
<mask id="mask19" mask-type="alpha" maskUnits="userSpaceOnUse" x="121" y="78" width="11" height="11">
<path d="M126.41 88.8834C129.298 88.8834 131.638 86.5496 131.638 83.6709C131.638 80.7921 129.298 78.4584 126.41 78.4584C123.522 78.4584 121.182 80.7921 121.182 83.6709C121.182 86.5496 123.522 88.8834 126.41 88.8834Z" fill="url(#paint38_linear)"/>
</mask>
<g mask="url(#mask19)">
<path d="M126.41 88.8834C129.298 88.8834 131.638 86.5496 131.638 83.6709C131.638 80.7921 129.298 78.4584 126.41 78.4584C123.522 78.4584 121.182 80.7921 121.182 83.6709C121.182 86.5496 123.522 88.8834 126.41 88.8834Z" fill="url(#paint39_linear)"/>
</g>
<mask id="mask20" mask-type="alpha" maskUnits="userSpaceOnUse" x="0" y="104" width="11" height="11">
<path d="M5.28575 115C8.17331 115 10.5141 112.666 10.5141 109.788C10.5141 106.909 8.17331 104.575 5.28575 104.575C2.3982 104.575 0.057373 106.909 0.057373 109.788C0.057373 112.666 2.3982 115 5.28575 115Z" fill="url(#paint40_linear)"/>
</mask>
<g mask="url(#mask20)">
<path d="M5.28575 115C8.17331 115 10.5141 112.666 10.5141 109.788C10.5141 106.909 8.17331 104.575 5.28575 104.575C2.3982 104.575 0.057373 106.909 0.057373 109.788C0.057373 112.666 2.3982 115 5.28575 115Z" fill="url(#paint41_linear)"/>
</g>
<mask id="mask21" mask-type="alpha" maskUnits="userSpaceOnUse" x="30" y="104" width="11" height="11">
<path d="M35.5668 115C38.4544 115 40.7952 112.666 40.7952 109.788C40.7952 106.909 38.4544 104.575 35.5668 104.575C32.6793 104.575 30.3384 106.909 30.3384 109.788C30.3384 112.666 32.6793 115 35.5668 115Z" fill="url(#paint42_linear)"/>
</mask>
<g mask="url(#mask21)">
<path d="M35.5668 115C38.4544 115 40.7952 112.666 40.7952 109.788C40.7952 106.909 38.4544 104.575 35.5668 104.575C32.6793 104.575 30.3384 106.909 30.3384 109.788C30.3384 112.666 32.6793 115 35.5668 115Z" fill="url(#paint43_linear)"/>
</g>
<mask id="mask22" mask-type="alpha" maskUnits="userSpaceOnUse" x="60" y="104" width="12" height="11">
<path d="M65.8479 115C68.7354 115 71.0763 112.666 71.0763 109.788C71.0763 106.909 68.7354 104.575 65.8479 104.575C62.9603 104.575 60.6195 106.909 60.6195 109.788C60.6195 112.666 62.9603 115 65.8479 115Z" fill="url(#paint44_linear)"/>
</mask>
<g mask="url(#mask22)">
<path d="M65.8479 115C68.7354 115 71.0763 112.666 71.0763 109.788C71.0763 106.909 68.7354 104.575 65.8479 104.575C62.9603 104.575 60.6195 106.909 60.6195 109.788C60.6195 112.666 62.9603 115 65.8479 115Z" fill="url(#paint45_linear)"/>
</g>
<mask id="mask23" mask-type="alpha" maskUnits="userSpaceOnUse" x="90" y="104" width="12" height="11">
<path d="M96.129 115C99.0165 115 101.357 112.666 101.357 109.788C101.357 106.909 99.0165 104.575 96.129 104.575C93.2414 104.575 90.9006 106.909 90.9006 109.788C90.9006 112.666 93.2414 115 96.129 115Z" fill="url(#paint46_linear)"/>
</mask>
<g mask="url(#mask23)">
<path d="M96.129 115C99.0165 115 101.357 112.666 101.357 109.788C101.357 106.909 99.0165 104.575 96.129 104.575C93.2414 104.575 90.9006 106.909 90.9006 109.788C90.9006 112.666 93.2414 115 96.129 115Z" fill="url(#paint47_linear)"/>
</g>
<mask id="mask24" mask-type="alpha" maskUnits="userSpaceOnUse" x="121" y="104" width="11" height="11">
<path d="M126.41 115C129.298 115 131.638 112.666 131.638 109.788C131.638 106.909 129.298 104.575 126.41 104.575C123.522 104.575 121.182 106.909 121.182 109.788C121.182 112.666 123.522 115 126.41 115Z" fill="url(#paint48_linear)"/>
</mask>
<g mask="url(#mask24)">
<path d="M126.41 115C129.298 115 131.638 112.666 131.638 109.788C131.638 106.909 129.298 104.575 126.41 104.575C123.522 104.575 121.182 106.909 121.182 109.788C121.182 112.666 123.522 115 126.41 115Z" fill="url(#paint49_linear)"/>
</g>
</g>
<defs>
<linearGradient id="paint0_linear" x1="55.0534" y1="131.134" x2="-16.3483" y2="-50.67" gradientUnits="userSpaceOnUse">
<stop/>
<stop offset="1" stop-color="white"/>
</linearGradient>
<linearGradient id="paint1_linear" x1="55.0534" y1="131.134" x2="-16.3483" y2="-50.67" gradientUnits="userSpaceOnUse">
<stop stop-color="#97C3F9"/>
<stop offset="1" stop-color="#93C1F9"/>
</linearGradient>
<linearGradient id="paint2_linear" x1="81.2579" y1="120.843" x2="9.85626" y2="-60.9613" gradientUnits="userSpaceOnUse">
<stop/>
<stop offset="1" stop-color="white"/>
</linearGradient>
<linearGradient id="paint3_linear" x1="81.2579" y1="120.843" x2="9.85626" y2="-60.9613" gradientUnits="userSpaceOnUse">
<stop stop-color="#97C3F9"/>
<stop offset="1" stop-color="#93C1F9"/>
</linearGradient>
<linearGradient id="paint4_linear" x1="107.462" y1="110.551" x2="36.0607" y2="-71.2526" gradientUnits="userSpaceOnUse">
<stop/>
<stop offset="1" stop-color="white"/>
</linearGradient>
<linearGradient id="paint5_linear" x1="107.462" y1="110.551" x2="36.0607" y2="-71.2526" gradientUnits="userSpaceOnUse">
<stop stop-color="#97C3F9"/>
<stop offset="1" stop-color="#93C1F9"/>
</linearGradient>
<linearGradient id="paint6_linear" x1="133.667" y1="100.259" x2="62.2649" y2="-81.5444" gradientUnits="userSpaceOnUse">
<stop/>
<stop offset="1" stop-color="white"/>
</linearGradient>
<linearGradient id="paint7_linear" x1="133.667" y1="100.259" x2="62.2649" y2="-81.5444" gradientUnits="userSpaceOnUse">
<stop stop-color="#97C3F9"/>
<stop offset="1" stop-color="#93C1F9"/>
</linearGradient>
<linearGradient id="paint8_linear" x1="159.871" y1="89.9679" x2="88.4692" y2="-91.8359" gradientUnits="userSpaceOnUse">
<stop/>
<stop offset="1" stop-color="white"/>
</linearGradient>
<linearGradient id="paint9_linear" x1="159.871" y1="89.9679" x2="88.4692" y2="-91.8359" gradientUnits="userSpaceOnUse">
<stop stop-color="#97C3F9"/>
<stop offset="1" stop-color="#93C1F9"/>
</linearGradient>
<linearGradient id="paint10_linear" x1="46.1112" y1="134.645" x2="-25.2893" y2="-47.1571" gradientUnits="userSpaceOnUse">
<stop/>
<stop offset="1" stop-color="white"/>
</linearGradient>
<linearGradient id="paint11_linear" x1="46.1112" y1="134.645" x2="-25.2893" y2="-47.1571" gradientUnits="userSpaceOnUse">
<stop stop-color="#97C3F9"/>
<stop offset="1" stop-color="#93C1F9"/>
</linearGradient>
<linearGradient id="paint12_linear" x1="72.3155" y1="124.354" x2="0.915091" y2="-57.449" gradientUnits="userSpaceOnUse">
<stop/>
<stop offset="1" stop-color="white"/>
</linearGradient>
<linearGradient id="paint13_linear" x1="72.3155" y1="124.354" x2="0.915091" y2="-57.449" gradientUnits="userSpaceOnUse">
<stop stop-color="#97C3F9"/>
<stop offset="1" stop-color="#93C1F9"/>
</linearGradient>
<linearGradient id="paint14_linear" x1="98.5197" y1="114.062" x2="27.1194" y2="-67.7403" gradientUnits="userSpaceOnUse">
<stop/>
<stop offset="1" stop-color="white"/>
</linearGradient>
<linearGradient id="paint15_linear" x1="98.5197" y1="114.062" x2="27.1194" y2="-67.7403" gradientUnits="userSpaceOnUse">
<stop stop-color="#97C3F9"/>
<stop offset="1" stop-color="#93C1F9"/>
</linearGradient>
<linearGradient id="paint16_linear" x1="124.724" y1="103.771" x2="53.3237" y2="-78.0318" gradientUnits="userSpaceOnUse">
<stop/>
<stop offset="1" stop-color="white"/>
</linearGradient>
<linearGradient id="paint17_linear" x1="124.724" y1="103.771" x2="53.3237" y2="-78.0318" gradientUnits="userSpaceOnUse">
<stop stop-color="#97C3F9"/>
<stop offset="1" stop-color="#93C1F9"/>
</linearGradient>
<linearGradient id="paint18_linear" x1="150.929" y1="93.4794" x2="79.5281" y2="-88.3231" gradientUnits="userSpaceOnUse">
<stop/>
<stop offset="1" stop-color="white"/>
</linearGradient>
<linearGradient id="paint19_linear" x1="150.929" y1="93.4794" x2="79.5281" y2="-88.3231" gradientUnits="userSpaceOnUse">
<stop stop-color="#97C3F9"/>
<stop offset="1" stop-color="#93C1F9"/>
</linearGradient>
<linearGradient id="paint20_linear" x1="37.1687" y1="138.158" x2="-34.233" y2="-43.6458" gradientUnits="userSpaceOnUse">
<stop/>
<stop offset="1" stop-color="white"/>
</linearGradient>
<linearGradient id="paint21_linear" x1="37.1687" y1="138.158" x2="-34.233" y2="-43.6458" gradientUnits="userSpaceOnUse">
<stop stop-color="#97C3F9"/>
<stop offset="1" stop-color="#93C1F9"/>
</linearGradient>
<linearGradient id="paint22_linear" x1="63.3731" y1="127.866" x2="-8.02853" y2="-53.9374" gradientUnits="userSpaceOnUse">
<stop/>
<stop offset="1" stop-color="white"/>
</linearGradient>
<linearGradient id="paint23_linear" x1="63.3731" y1="127.866" x2="-8.02853" y2="-53.9374" gradientUnits="userSpaceOnUse">
<stop stop-color="#97C3F9"/>
<stop offset="1" stop-color="#93C1F9"/>
</linearGradient>
<linearGradient id="paint24_linear" x1="89.5774" y1="117.575" x2="18.1758" y2="-64.2288" gradientUnits="userSpaceOnUse">
<stop/>
<stop offset="1" stop-color="white"/>
</linearGradient>
<linearGradient id="paint25_linear" x1="89.5774" y1="117.575" x2="18.1758" y2="-64.2288" gradientUnits="userSpaceOnUse">
<stop stop-color="#97C3F9"/>
<stop offset="1" stop-color="#93C1F9"/>
</linearGradient>
<linearGradient id="paint26_linear" x1="115.782" y1="107.283" x2="44.3801" y2="-74.5205" gradientUnits="userSpaceOnUse">
<stop/>
<stop offset="1" stop-color="white"/>
</linearGradient>
<linearGradient id="paint27_linear" x1="115.782" y1="107.283" x2="44.3801" y2="-74.5205" gradientUnits="userSpaceOnUse">
<stop stop-color="#97C3F9"/>
<stop offset="1" stop-color="#93C1F9"/>
</linearGradient>
<linearGradient id="paint28_linear" x1="141.986" y1="96.9919" x2="70.5844" y2="-84.812" gradientUnits="userSpaceOnUse">
<stop/>
<stop offset="1" stop-color="white"/>
</linearGradient>
<linearGradient id="paint29_linear" x1="141.986" y1="96.9919" x2="70.5844" y2="-84.812" gradientUnits="userSpaceOnUse">
<stop stop-color="#97C3F9"/>
<stop offset="1" stop-color="#93C1F9"/>
</linearGradient>
<linearGradient id="paint30_linear" x1="28.2263" y1="141.67" x2="-43.1754" y2="-40.1338" gradientUnits="userSpaceOnUse">
<stop/>
<stop offset="1" stop-color="white"/>
</linearGradient>
<linearGradient id="paint31_linear" x1="28.2263" y1="141.67" x2="-43.1754" y2="-40.1338" gradientUnits="userSpaceOnUse">
<stop stop-color="#97C3F9"/>
<stop offset="1" stop-color="#93C1F9"/>
</linearGradient>
<linearGradient id="paint32_linear" x1="54.4307" y1="131.379" x2="-16.9709" y2="-50.4253" gradientUnits="userSpaceOnUse">
<stop/>
<stop offset="1" stop-color="white"/>
</linearGradient>
<linearGradient id="paint33_linear" x1="54.4307" y1="131.379" x2="-16.9709" y2="-50.4253" gradientUnits="userSpaceOnUse">
<stop stop-color="#97C3F9"/>
<stop offset="1" stop-color="#93C1F9"/>
</linearGradient>
<linearGradient id="paint34_linear" x1="80.635" y1="121.087" x2="9.23344" y2="-60.7168" gradientUnits="userSpaceOnUse">
<stop/>
<stop offset="1" stop-color="white"/>
</linearGradient>
<linearGradient id="paint35_linear" x1="80.635" y1="121.087" x2="9.23344" y2="-60.7168" gradientUnits="userSpaceOnUse">
<stop stop-color="#97C3F9"/>
<stop offset="1" stop-color="#93C1F9"/>
</linearGradient>
<linearGradient id="paint36_linear" x1="106.839" y1="110.795" x2="35.4377" y2="-71.0084" gradientUnits="userSpaceOnUse">
<stop/>
<stop offset="1" stop-color="white"/>
</linearGradient>
<linearGradient id="paint37_linear" x1="106.839" y1="110.795" x2="35.4377" y2="-71.0084" gradientUnits="userSpaceOnUse">
<stop stop-color="#97C3F9"/>
<stop offset="1" stop-color="#93C1F9"/>
</linearGradient>
<linearGradient id="paint38_linear" x1="133.044" y1="100.504" x2="61.6421" y2="-81.3" gradientUnits="userSpaceOnUse">
<stop/>
<stop offset="1" stop-color="white"/>
</linearGradient>
<linearGradient id="paint39_linear" x1="133.044" y1="100.504" x2="61.6421" y2="-81.3" gradientUnits="userSpaceOnUse">
<stop stop-color="#97C3F9"/>
<stop offset="1" stop-color="#93C1F9"/>
</linearGradient>
<linearGradient id="paint40_linear" x1="19.2839" y1="145.182" x2="-52.1177" y2="-36.6219" gradientUnits="userSpaceOnUse">
<stop/>
<stop offset="1" stop-color="white"/>
</linearGradient>
<linearGradient id="paint41_linear" x1="19.2839" y1="145.182" x2="-52.1177" y2="-36.6219" gradientUnits="userSpaceOnUse">
<stop stop-color="#97C3F9"/>
<stop offset="1" stop-color="#93C1F9"/>
</linearGradient>
<linearGradient id="paint42_linear" x1="45.4883" y1="134.89" x2="-25.9133" y2="-46.9134" gradientUnits="userSpaceOnUse">
<stop/>
<stop offset="1" stop-color="white"/>
</linearGradient>
<linearGradient id="paint43_linear" x1="45.4883" y1="134.89" x2="-25.9133" y2="-46.9134" gradientUnits="userSpaceOnUse">
<stop stop-color="#97C3F9"/>
<stop offset="1" stop-color="#93C1F9"/>
</linearGradient>
<linearGradient id="paint44_linear" x1="71.6927" y1="124.599" x2="0.291091" y2="-57.2047" gradientUnits="userSpaceOnUse">
<stop/>
<stop offset="1" stop-color="white"/>
</linearGradient>
<linearGradient id="paint45_linear" x1="71.6927" y1="124.599" x2="0.291091" y2="-57.2047" gradientUnits="userSpaceOnUse">
<stop stop-color="#97C3F9"/>
<stop offset="1" stop-color="#93C1F9"/>
</linearGradient>
<linearGradient id="paint46_linear" x1="97.897" y1="114.307" x2="26.4954" y2="-67.4964" gradientUnits="userSpaceOnUse">
<stop/>
<stop offset="1" stop-color="white"/>
</linearGradient>
<linearGradient id="paint47_linear" x1="97.897" y1="114.307" x2="26.4954" y2="-67.4964" gradientUnits="userSpaceOnUse">
<stop stop-color="#97C3F9"/>
<stop offset="1" stop-color="#93C1F9"/>
</linearGradient>
<linearGradient id="paint48_linear" x1="124.101" y1="104.016" x2="52.6997" y2="-77.7879" gradientUnits="userSpaceOnUse">
<stop/>
<stop offset="1" stop-color="white"/>
</linearGradient>
<linearGradient id="paint49_linear" x1="124.101" y1="104.016" x2="52.6997" y2="-77.7879" gradientUnits="userSpaceOnUse">
<stop stop-color="#97C3F9"/>
<stop offset="1" stop-color="#93C1F9"/>
</linearGradient>
</defs>
</svg>
