<svg width="93" height="90" viewBox="0 0 93 90" fill="none" xmlns="http://www.w3.org/2000/svg">
<g clip-path="url(#clip0)">
<path d="M56.9824 43.3151L47.9046 51.9802L9.57024 88.5661C8.56385 89.5289 7.27282 90.0103 5.9818 90.0103C4.56878 90.0103 3.15577 89.4367 2.12905 88.2998C0.1061 86.0669 0.370405 82.5743 2.69832 80.6692L47.9046 43.8272L52.8857 39.7712L56.9824 43.3151Z" fill="url(#paint0_linear)"/>
<path d="M47.5081 52.4207L38.5726 60.9424L37.7492 52.1851L42.6388 48.2008L47.5081 52.4207Z" fill="#3A81D6" fill-opacity="0.8"/>
<path d="M92.7449 29.9078C92.7449 46.4288 79.4483 59.8259 63.0614 59.8259C52.7332 59.8259 43.635 54.5101 38.3185 46.4391C35.1976 41.7071 33.378 36.0225 33.378 29.9078C33.378 13.3868 46.6745 0 63.0614 0C70.462 0 77.2221 2.72448 82.4167 7.23114C88.7397 12.7211 92.7449 20.8433 92.7449 29.9078Z" fill="url(#paint1_linear)"/>
<path d="M63.0614 53.2093C75.8339 53.2093 86.1881 42.7768 86.1881 29.9078C86.1881 17.0387 75.8339 6.60632 63.0614 6.60632C50.2889 6.60632 39.9348 17.0387 39.9348 29.9078C39.9348 42.7768 50.2889 53.2093 63.0614 53.2093Z" fill="white"/>
<path opacity="0.06" d="M92.7449 29.9078C92.7449 46.4288 79.4483 59.8258 63.0614 59.8258C52.7332 59.8258 43.635 54.51 38.3185 46.439C71.7936 43.694 80.6174 15.1177 82.4268 7.23108C88.7396 12.721 92.7449 20.8432 92.7449 29.9078Z" fill="#1A6FB5" fill-opacity="0.5"/>
<path d="M63.0614 29.959C65.7451 29.959 67.9206 27.7671 67.9206 25.0631C67.9206 22.3591 65.7451 20.1672 63.0614 20.1672C60.3777 20.1672 58.2023 22.3591 58.2023 25.0631C58.2023 27.7671 60.3675 29.959 63.0614 29.959ZM63.0614 32.4069C59.8186 32.4069 53.3431 34.0457 53.3431 37.3028V38.5319C53.3431 39.2079 53.8921 39.761 54.563 39.761H71.5802C72.2511 39.761 72.8 39.2079 72.8 38.5319V37.3028C72.7797 34.0559 66.3042 32.4069 63.0614 32.4069Z" fill="url(#paint2_linear)"/>
</g>
<defs>
<linearGradient id="paint0_linear" x1="6.44157" y1="84.3265" x2="54.6912" y2="40.7922" gradientUnits="userSpaceOnUse">
<stop stop-color="#67C3F3"/>
<stop offset="1" stop-color="#5A98F2"/>
</linearGradient>
<linearGradient id="paint1_linear" x1="50.7842" y1="2.11336" x2="73.5486" y2="52.9053" gradientUnits="userSpaceOnUse">
<stop stop-color="#67C3F3"/>
<stop offset="1" stop-color="#5A98F2"/>
</linearGradient>
<linearGradient id="paint2_linear" x1="56.0355" y1="28.3947" x2="73.6864" y2="36.939" gradientUnits="userSpaceOnUse">
<stop stop-color="#B0F4FF"/>
<stop offset="0.071077" stop-color="#A6F1FF"/>
<stop offset="0.2937" stop-color="#8BE8FD"/>
<stop offset="0.5209" stop-color="#78E1FD"/>
<stop offset="0.7536" stop-color="#6DDDFC"/>
<stop offset="1" stop-color="#69DCFC"/>
</linearGradient>
<clipPath id="clip0">
<rect width="91.978" height="90" fill="white" transform="translate(0.766846)"/>
</clipPath>
</defs>
</svg>
