<svg width="69" height="95" viewBox="0 0 69 95" fill="none" xmlns="http://www.w3.org/2000/svg">
<g clip-path="url(#clip0)">
<path d="M65.7365 0H3.09656C1.80827 0 0.766846 1.02822 0.766846 2.30017V92.7074C0.766846 93.9794 1.80827 95.0076 3.09656 95.0076H65.7365C67.0248 95.0076 68.0662 93.9794 68.0662 92.7074V2.30017C68.0585 1.02822 67.0171 0 65.7365 0Z" fill="url(#paint0_linear)"/>
<path d="M61.6248 4.09766H7.20056C5.95084 4.09766 4.93256 5.10303 4.93256 6.34451V81.0923C4.93256 82.3338 5.95084 83.3316 7.20056 83.3316H61.6248C62.8822 83.3316 63.8928 82.3262 63.8928 81.0923V6.34451C63.8928 5.10303 62.8822 4.09766 61.6248 4.09766Z" fill="white"/>
<path d="M45.5406 39.636H23.2926C22.2743 39.636 21.4489 38.821 21.4489 37.8156V15.8422C21.4489 14.8368 22.2743 14.0219 23.2926 14.0219H45.5406C46.5588 14.0219 47.3843 14.8368 47.3843 15.8422V37.808C47.3843 38.8134 46.5588 39.636 45.5406 39.636Z" fill="url(#paint1_linear)"/>
<path d="M34.4165 92.5474C36.3082 92.5474 37.8417 91.0334 37.8417 89.1657C37.8417 87.2981 36.3082 85.7841 34.4165 85.7841C32.5249 85.7841 30.9914 87.2981 30.9914 89.1657C30.9914 91.0334 32.5249 92.5474 34.4165 92.5474Z" fill="white"/>
<path d="M53.8025 51.015H15.0228C14.0431 51.015 13.2408 50.2229 13.2408 49.2556C13.2408 48.2883 14.0431 47.4962 15.0228 47.4962H53.7948C54.7745 47.4962 55.5768 48.2883 55.5768 49.2556C55.5768 50.2229 54.7822 51.015 53.8025 51.015Z" fill="url(#paint2_linear)"/>
<path opacity="0.6" d="M47.2377 60.7641H14.3748C13.75 60.7641 13.2485 60.2614 13.2485 59.6521V59.5302C13.2485 58.9133 13.7577 58.4182 14.3748 58.4182H47.2377C47.8625 58.4182 48.3639 58.9209 48.3639 59.5302V59.6521C48.3717 60.2614 47.8625 60.7641 47.2377 60.7641Z" fill="url(#paint3_linear)"/>
<path opacity="0.3" d="M40.9814 66.9562H14.2668C13.7037 66.9562 13.2408 66.4992 13.2408 65.9432V65.6081C13.2408 65.0521 13.7037 64.5951 14.2668 64.5951H40.9737C41.5368 64.5951 41.9997 65.0521 41.9997 65.6081V65.9432C41.9997 66.4992 41.5368 66.9562 40.9814 66.9562Z" fill="url(#paint4_linear)"/>
<path opacity="0.6" d="M44.3448 72.6914H14.3285C13.7345 72.6914 13.2485 72.2116 13.2485 71.6251V71.4119C13.2485 70.8254 13.7345 70.3456 14.3285 70.3456H44.3448C44.9388 70.3456 45.4248 70.8254 45.4248 71.4119V71.6251C45.4248 72.204 44.9388 72.6914 44.3448 72.6914Z" fill="url(#paint5_linear)"/>
<path d="M34.4834 26.1208C36.711 26.1208 38.5167 24.3142 38.5167 22.0854C38.5167 19.8567 36.711 18.05 34.4834 18.05C32.2558 18.05 30.4502 19.8567 30.4502 22.0854C30.4502 24.3142 32.2474 26.1208 34.4834 26.1208ZM34.4834 28.1385C31.7918 28.1385 26.4169 29.4893 26.4169 32.1739V33.187C26.4169 33.7442 26.8725 34.2 27.4294 34.2H41.5543C42.1112 34.2 42.5669 33.7442 42.5669 33.187V32.1739C42.55 29.4977 37.1751 28.1385 34.4834 28.1385Z" fill="white"/>
</g>
<defs>
<linearGradient id="paint0_linear" x1="4.84383" y1="45.0301" x2="68.1113" y2="50.4539" gradientUnits="userSpaceOnUse">
<stop stop-color="#6CBCFC"/>
<stop offset="1" stop-color="#458DFC"/>
</linearGradient>
<linearGradient id="paint1_linear" x1="19.4376" y1="19.2923" x2="49.2323" y2="34.6685" gradientUnits="userSpaceOnUse">
<stop stop-color="#B0F4FF"/>
<stop offset="0.0856277" stop-color="#A3F0FE"/>
<stop offset="0.2972" stop-color="#8AE7FD"/>
<stop offset="0.5161" stop-color="#77E1FD"/>
<stop offset="0.7451" stop-color="#6DDDFC"/>
<stop offset="1" stop-color="#69DCFC"/>
</linearGradient>
<linearGradient id="paint2_linear" x1="55.5806" y1="49.257" x2="13.2481" y2="49.257" gradientUnits="userSpaceOnUse">
<stop stop-color="#6CBCFC"/>
<stop offset="1" stop-color="#458DFC"/>
</linearGradient>
<linearGradient id="paint3_linear" x1="48.3695" y1="59.5878" x2="13.2481" y2="59.5878" gradientUnits="userSpaceOnUse">
<stop stop-color="#6CBCFC"/>
<stop offset="1" stop-color="#458DFC"/>
</linearGradient>
<linearGradient id="paint4_linear" x1="42.0005" y1="65.7799" x2="13.2481" y2="65.7799" gradientUnits="userSpaceOnUse">
<stop stop-color="#6CBCFC"/>
<stop offset="1" stop-color="#458DFC"/>
</linearGradient>
<linearGradient id="paint5_linear" x1="45.4242" y1="71.5124" x2="13.2481" y2="71.5124" gradientUnits="userSpaceOnUse">
<stop stop-color="#6CBCFC"/>
<stop offset="1" stop-color="#458DFC"/>
</linearGradient>
<clipPath id="clip0">
<rect width="67.2917" height="95" fill="white" transform="translate(0.766846)"/>
</clipPath>
</defs>
</svg>
