<svg width="63" height="85" viewBox="0 0 63 85" fill="none" xmlns="http://www.w3.org/2000/svg">
<g clip-path="url(#clip0)">
<path d="M62.6242 26.4806L62.4325 66.2814L62.4006 73.9796C62.3686 80.0967 56.555 85.0319 49.3998 84.9999L13.6558 84.8402C6.51654 84.7923 0.734882 79.8092 0.766825 73.6762L0.990425 26.1771C1.0064 21.226 4.83954 17.0415 10.0782 15.652L10.0941 13.0965V11.7869L53.6482 11.9945L53.6323 15.8596C58.8549 17.313 62.6401 21.5135 62.6242 26.4806Z" fill="url(#paint0_linear)"/>
<path d="M56.8905 1.77283V2.1242L56.8585 6.27678L56.8266 10.3495V10.8446C56.8266 11.6112 56.1877 12.2341 55.4211 12.2341H55.0857L52.9775 12.2182L50.6616 12.2022L48.5534 12.1862L46.2375 12.1702L44.0974 12.1383L41.7815 12.1223L39.6733 12.1064L37.3414 12.0904L35.2172 12.0744L32.9014 12.0584L30.7931 12.0265L28.4773 12.0105L26.3691 11.9945L24.0372 11.9786L21.913 11.9626L19.6131 11.9466L17.5049 11.9307L15.189 11.9147L13.0648 11.8987L10.749 11.8828L8.62479 11.8668H8.28939C7.52276 11.8668 6.89987 11.2279 6.89987 10.4613V10.4453V10.0939L6.96376 1.88463V1.38952C6.96376 0.622886 7.60261 0 8.38522 0H8.72062L13.1607 0.0319429L17.6007 0.0638858L19.7249 0.0798572L22.0408 0.0958286L24.149 0.1118L28.5731 0.159714L30.889 0.175686L32.9972 0.191657L35.3131 0.207629L37.4213 0.2236L39.7372 0.239572L41.8454 0.255543L44.1612 0.271514L46.2695 0.287486L48.6173 0.319429L50.7255 0.3354L53.0414 0.351372L55.1656 0.367343H55.501C56.2836 0.383315 56.8905 1.0062 56.8905 1.77283Z" fill="url(#paint1_linear)"/>
<path d="M56.8905 2.14019L56.8585 6.27679L56.8266 10.3495L54.926 10.3335L52.4025 10.3176L50.0866 10.3016H47.5472L45.2313 10.2856L42.7078 10.2697L40.392 10.2537H37.8525L35.5367 10.2377L32.9972 10.2217L30.6973 10.2058H28.1579L25.842 10.1898L23.3025 10.1738L20.9867 10.1579H18.4632L16.1473 10.1419L13.6079 10.1259L11.292 10.1099H8.76853L6.89987 10.094L6.96376 1.88464L11.4038 1.90061L16.2432 1.93256L18.559 1.94853L21.0985 1.9645H23.4143L28.2537 1.99644L30.7931 2.01242H33.109L35.6485 2.02839L37.9483 2.04436L40.4878 2.06033H42.8037L45.3431 2.0763L47.643 2.09227L50.1825 2.10824H52.4983L55.0378 2.12422L56.8905 2.14019Z" fill="url(#paint2_linear)"/>
<path d="M62.5774 34.8841L0.943604 34.5927L0.814369 61.9198L62.4482 62.2112L62.5774 34.8841Z" fill="#F7F9FC"/>
<path d="M62.5883 34.884L0.954498 34.5927L0.931242 39.5119L62.565 39.8032L62.5883 34.884Z" fill="#FBFCF7"/>
<path d="M24.9795 45.5803L21.0026 45.5644L21.0186 41.5715L15.5404 41.5555L15.5244 45.5324L11.5475 45.5165L11.5156 50.9787L15.4925 50.9947L15.4765 54.9875L20.9547 55.0035L20.9707 51.0266L24.9476 51.0426L24.9795 45.5803Z" fill="url(#paint3_linear)"/>
<path d="M52.0032 46.906L32.2944 46.8102C31.7674 46.8102 31.3362 46.379 31.3362 45.8519V45.4047C31.3362 44.8776 31.7674 44.4464 32.2944 44.4464L52.0032 44.5422C52.5303 44.5422 52.9615 44.9735 52.9615 45.5005V45.9477C52.9615 46.4748 52.5303 46.906 52.0032 46.906Z" fill="url(#paint4_linear)"/>
<path opacity="0.5" d="M51.9872 52.7675L32.2785 52.6716C31.7514 52.6716 31.3202 52.2404 31.3202 51.7133V51.2661C31.3202 50.7391 31.7514 50.3079 32.2785 50.3079L51.9872 50.4037C52.5143 50.4037 52.9455 50.8349 52.9455 51.362V51.8092C52.9455 52.3362 52.5143 52.7675 51.9872 52.7675Z" fill="url(#paint5_linear)"/>
<path opacity="0.08" d="M6.89987 1.7728V2.12417L6.93181 6.27674L6.96376 10.3335V10.8286C6.96376 11.5952 7.60261 12.2181 8.36924 12.2181H8.70464L10.8288 12.2021L13.1447 12.1862L15.2529 12.1702L17.5688 12.1542L19.677 12.1383L21.9929 12.1223L24.1011 12.1063L26.417 12.0903L28.5412 12.0744L30.857 12.0584L32.9653 12.0424L35.2811 12.0265L37.3893 12.0105L39.7052 11.9945L41.8294 11.9785L44.1453 11.9626L46.2535 11.9466L48.5694 11.9306L50.6776 11.9147L52.9934 11.8987L55.1176 11.8827H55.453C56.2197 11.8827 56.8426 11.2439 56.8426 10.4772V10.4613V10.1099C32.1347 11.18 8.28939 0.36731 8.28939 0.36731C7.52276 0.383281 6.89987 1.00617 6.89987 1.7728Z" fill="#1A6FB5"/>
</g>
<defs>
<linearGradient id="paint0_linear" x1="0.766825" y1="11.3333" x2="57.9057" y2="90.1944" gradientUnits="userSpaceOnUse">
<stop stop-color="#6CBCFC"/>
<stop offset="1" stop-color="#458DFC"/>
</linearGradient>
<linearGradient id="paint1_linear" x1="-629.163" y1="-39.931" x2="-26.8372" y2="2.02206" gradientUnits="userSpaceOnUse">
<stop stop-color="#B0F4FF"/>
<stop offset="0.0525488" stop-color="#A9F2FF"/>
<stop offset="0.2879" stop-color="#8DE8FE"/>
<stop offset="0.5247" stop-color="#79E1FD"/>
<stop offset="0.7618" stop-color="#6DDDFC"/>
<stop offset="1" stop-color="#69DCFC"/>
</linearGradient>
<linearGradient id="paint2_linear" x1="6.90677" y1="6.11313" x2="56.8926" y2="6.11313" gradientUnits="userSpaceOnUse">
<stop stop-color="#B0F4FF"/>
<stop offset="0.0525488" stop-color="#A9F2FF"/>
<stop offset="0.2879" stop-color="#8DE8FE"/>
<stop offset="0.5247" stop-color="#79E1FD"/>
<stop offset="0.7618" stop-color="#6DDDFC"/>
<stop offset="1" stop-color="#69DCFC"/>
</linearGradient>
<linearGradient id="paint3_linear" x1="22.7447" y1="43.0953" x2="13.3643" y2="53.9124" gradientUnits="userSpaceOnUse">
<stop stop-color="#6CBCFC"/>
<stop offset="1" stop-color="#458DFC"/>
</linearGradient>
<linearGradient id="paint4_linear" x1="53.1516" y1="45.671" x2="29.6535" y2="45.671" gradientUnits="userSpaceOnUse">
<stop stop-color="#6CBCFC"/>
<stop offset="1" stop-color="#458DFC"/>
</linearGradient>
<linearGradient id="paint5_linear" x1="31.3187" y1="51.5321" x2="52.9459" y2="51.5321" gradientUnits="userSpaceOnUse">
<stop stop-color="#6CBCFC"/>
<stop offset="1" stop-color="#458DFC"/>
</linearGradient>
<clipPath id="clip0">
<rect width="61.8574" height="85" fill="white" transform="translate(0.766846)"/>
</clipPath>
</defs>
</svg>
