<svg width="71" height="95" viewBox="0 0 71 95" fill="none" xmlns="http://www.w3.org/2000/svg">
<path d="M70.1893 4.31029V90.7055C70.1893 93.0896 68.2631 95.0158 65.879 95.0158H5.07713C2.69305 95 0.766846 93.0738 0.766846 90.7055V4.31029C0.766846 1.92621 2.69305 0 5.07713 0H65.8948C68.2631 0 70.1893 1.92621 70.1893 4.31029Z" fill="url(#paint0_linear)"/>
<path d="M65.7668 7.94666V87.0533C65.7668 89.2363 64.0743 91 61.9795 91H8.5542C6.45936 90.9855 4.76685 89.2218 4.76685 87.0533V7.94666C4.76685 5.76371 6.45936 4 8.5542 4H61.9934C64.0743 4 65.7668 5.76371 65.7668 7.94666Z" fill="url(#paint1_linear)"/>
<path d="M27.6391 18.2516V22.183C27.6391 22.4672 27.418 22.6882 27.1338 22.6882H22.3183C22.0341 22.6882 21.8131 22.9093 21.8131 23.1935V28.009C21.8131 28.2932 21.592 28.5142 21.3078 28.5142H17.3765C17.0923 28.5142 16.8712 28.2932 16.8712 28.009V23.1935C16.8712 22.9093 16.6502 22.6882 16.366 22.6882H11.5663C11.2821 22.6882 11.061 22.4672 11.061 22.183V18.2516C11.061 17.9674 11.2821 17.7464 11.5663 17.7464H16.3818C16.666 17.7464 16.887 17.5254 16.887 17.2412V12.4256C16.887 12.1415 17.1081 11.9204 17.3923 11.9204H21.3236C21.6078 11.9204 21.8289 12.1415 21.8289 12.4256V17.2412C21.8289 17.5254 22.0499 17.7464 22.3341 17.7464H27.1338C27.418 17.7464 27.6391 17.9674 27.6391 18.2516Z" fill="url(#paint2_linear)"/>
<path opacity="0.5" d="M59.3426 39.6767H11.6136C11.2978 39.6767 11.0452 39.4241 11.0452 39.1083V37.2926C11.0452 36.9769 11.2978 36.7242 11.6136 36.7242H59.3426C59.6583 36.7242 59.9109 36.9769 59.9109 37.2926V39.1083C59.8952 39.4241 59.6583 39.6767 59.3426 39.6767Z" fill="url(#paint3_linear)"/>
<path d="M59.3425 17.0517H35.6596C35.3439 17.0517 35.0912 16.7991 35.0912 16.4833V14.6834C35.0912 14.3676 35.3439 14.115 35.6596 14.115H59.3425C59.6583 14.115 59.9109 14.3676 59.9109 14.6834V16.4991C59.8951 16.7991 59.6583 17.0517 59.3425 17.0517Z" fill="url(#paint4_linear)"/>
<path opacity="0.5" d="M52.3324 24.7249H35.6596C35.3439 24.7249 35.0912 24.4723 35.0912 24.1565V22.3408C35.0912 22.0251 35.3439 21.7725 35.6596 21.7725H52.3324C52.6482 21.7725 52.9008 22.0251 52.9008 22.3408V24.1565C52.885 24.4723 52.6482 24.7249 52.3324 24.7249Z" fill="url(#paint5_linear)"/>
<path opacity="0.5" d="M59.3426 48.2973H11.6136C11.2978 48.2973 11.0452 48.0447 11.0452 47.7289V45.9132C11.0452 45.5975 11.2978 45.3448 11.6136 45.3448H59.3426C59.6583 45.3448 59.9109 45.5975 59.9109 45.9132V47.7289C59.8952 48.0447 59.6583 48.2973 59.3426 48.2973Z" fill="url(#paint6_linear)"/>
<path opacity="0.5" d="M59.3426 56.9179H11.6136C11.2978 56.9179 11.0452 56.6653 11.0452 56.3495V54.5338C11.0452 54.2181 11.2978 53.9655 11.6136 53.9655H59.3426C59.6583 53.9655 59.9109 54.2181 59.9109 54.5338V56.3653C59.8952 56.6653 59.6583 56.9179 59.3426 56.9179Z" fill="url(#paint7_linear)"/>
<path opacity="0.5" d="M59.3426 65.5543H11.6136C11.2978 65.5543 11.0452 65.3017 11.0452 64.9859V63.1702C11.0452 62.8544 11.2978 62.6018 11.6136 62.6018H59.3426C59.6583 62.6018 59.9109 62.8544 59.9109 63.1702V64.9859C59.8952 65.3017 59.6583 65.5543 59.3426 65.5543Z" fill="url(#paint8_linear)"/>
<path opacity="0.5" d="M59.3426 74.1749H11.6136C11.2978 74.1749 11.0452 73.9223 11.0452 73.6065V71.7908C11.0452 71.475 11.2978 71.2224 11.6136 71.2224H59.3426C59.6583 71.2224 59.9109 71.475 59.9109 71.7908V73.6065C59.8952 73.9223 59.6583 74.1749 59.3426 74.1749Z" fill="url(#paint9_linear)"/>
<path opacity="0.5" d="M59.3426 82.7955H11.6136C11.2978 82.7955 11.0452 82.5429 11.0452 82.2271V80.4114C11.0452 80.0956 11.2978 79.843 11.6136 79.843H59.3426C59.6583 79.843 59.9109 80.0956 59.9109 80.4114V82.2271C59.8952 82.5429 59.6583 82.7955 59.3426 82.7955Z" fill="url(#paint10_linear)"/>
<path opacity="0.1" d="M70.1893 4.31029V90.7055C70.1893 93.0896 68.2631 95.0158 65.879 95.0158H5.07713C2.69305 95 0.766846 93.0738 0.766846 90.7055V89.2056C37.8543 73.8906 55.127 15.1571 59.0268 0H65.879C68.2631 0 70.1893 1.92621 70.1893 4.31029Z" fill="#1A6FB5" fill-opacity="0.4"/>
<defs>
<linearGradient id="paint0_linear" x1="95.7668" y1="126" x2="-5.23316" y2="-5.5" gradientUnits="userSpaceOnUse">
<stop offset="0.3061" stop-color="#5BA7FC"/>
<stop offset="1" stop-color="#69B8FC"/>
</linearGradient>
<linearGradient id="paint1_linear" x1="9.39094" y1="7.04564" x2="58.7053" y2="78.0313" gradientUnits="userSpaceOnUse">
<stop offset="0.3061" stop-color="white"/>
<stop offset="1" stop-color="white"/>
</linearGradient>
<linearGradient id="paint2_linear" x1="10.7669" y1="9.50003" x2="25.7669" y2="34" gradientUnits="userSpaceOnUse">
<stop stop-color="#B0F4FF"/>
<stop offset="0.368525" stop-color="#80E4FD"/>
<stop offset="1" stop-color="#6CDDFC"/>
</linearGradient>
<linearGradient id="paint3_linear" x1="11.0574" y1="38.2072" x2="59.9024" y2="38.2072" gradientUnits="userSpaceOnUse">
<stop stop-color="#6CBCFC"/>
<stop offset="1" stop-color="#458DFC"/>
</linearGradient>
<linearGradient id="paint4_linear" x1="35.0917" y1="15.5844" x2="59.9023" y2="15.5844" gradientUnits="userSpaceOnUse">
<stop stop-color="#6CBCFC"/>
<stop offset="1" stop-color="#458DFC"/>
</linearGradient>
<linearGradient id="paint5_linear" x1="35.0917" y1="23.2616" x2="52.8924" y2="23.2616" gradientUnits="userSpaceOnUse">
<stop stop-color="#6CBCFC"/>
<stop offset="1" stop-color="#458DFC"/>
</linearGradient>
<linearGradient id="paint6_linear" x1="11.0574" y1="46.8317" x2="59.9024" y2="46.8317" gradientUnits="userSpaceOnUse">
<stop stop-color="#6CBCFC"/>
<stop offset="1" stop-color="#458DFC"/>
</linearGradient>
<linearGradient id="paint7_linear" x1="11.0574" y1="55.4562" x2="59.9024" y2="55.4562" gradientUnits="userSpaceOnUse">
<stop stop-color="#6CBCFC"/>
<stop offset="1" stop-color="#458DFC"/>
</linearGradient>
<linearGradient id="paint8_linear" x1="11.0574" y1="64.0807" x2="59.9024" y2="64.0807" gradientUnits="userSpaceOnUse">
<stop stop-color="#6CBCFC"/>
<stop offset="1" stop-color="#458DFC"/>
</linearGradient>
<linearGradient id="paint9_linear" x1="11.0574" y1="72.7052" x2="59.9024" y2="72.7052" gradientUnits="userSpaceOnUse">
<stop stop-color="#6CBCFC"/>
<stop offset="1" stop-color="#458DFC"/>
</linearGradient>
<linearGradient id="paint10_linear" x1="11.0574" y1="81.3297" x2="59.9024" y2="81.3297" gradientUnits="userSpaceOnUse">
<stop stop-color="#6CBCFC"/>
<stop offset="1" stop-color="#458DFC"/>
</linearGradient>
</defs>
</svg>
